<svg width="807" height="807" xmlns="http://www.w3.org/2000/svg" xmlns:xlink="http://www.w3.org/1999/xlink" overflow="hidden"><defs><clipPath id="clip0"><rect x="954" y="1462" width="807" height="807"/></clipPath></defs><g clip-path="url(#clip0)" transform="translate(-954 -1462)"><path d="M1340.69 1646.94C1340.69 1674.79 1318.11 1697.38 1290.25 1697.38 1262.39 1697.38 1239.81 1674.79 1239.81 1646.94 1239.81 1619.08 1262.39 1596.5 1290.25 1596.5 1318.11 1596.5 1340.69 1619.08 1340.69 1646.94Z" fill="#FFFFFF"/><path d="M1290.25 1520.84C1290.25 1534.77 1278.96 1546.06 1265.03 1546.06 1251.1 1546.06 1239.81 1534.77 1239.81 1520.84 1239.81 1506.92 1251.1 1495.62 1265.03 1495.62 1278.96 1495.62 1290.25 1506.92 1290.25 1520.84Z" fill="#FFFFFF"/><path d="M1433.16 1672.16C1433.16 1686.08 1421.87 1697.38 1407.94 1697.38 1394.01 1697.38 1382.72 1686.08 1382.72 1672.16 1382.72 1658.23 1394.01 1646.94 1407.94 1646.94 1421.87 1646.94 1433.16 1658.23 1433.16 1672.16Z" fill="#FFFFFF"/><path d="M1458.38 1562.88C1458.38 1581.45 1443.32 1596.5 1424.75 1596.5 1406.18 1596.5 1391.12 1581.45 1391.12 1562.88 1391.12 1544.3 1406.18 1529.25 1424.75 1529.25 1443.32 1529.25 1458.38 1544.3 1458.38 1562.88Z" fill="#FFFFFF"/><path d="M1592.03 1735.2C1590.35 1727.64 1583.63 1722.59 1576.06 1722.59L1138.94 1722.59C1131.37 1722.59 1124.65 1727.64 1122.97 1735.2 1121.28 1742.77 1124.65 1750.33 1131.37 1753.7 1131.37 1753.7 1156.59 1767.99 1156.59 1798.25L1156.59 2184.94C1156.59 2212.68 1179.29 2235.38 1207.03 2235.38L1509.65 2235.38C1537.39 2235.38 1560.09 2212.68 1560.09 2184.94L1560.09 1798.25C1560.09 1767.99 1583.63 1754.54 1584.47 1754.54 1590.35 1750.33 1594.56 1742.77 1592.03 1735.2ZM1475.19 2168.12 1374.31 2168.12 1374.31 2134.5 1475.19 2134.5 1475.19 2168.12ZM1475.19 2100.88 1374.31 2100.88 1374.31 2067.25 1475.19 2067.25 1475.19 2100.88ZM1475.19 2033.62 1374.31 2033.62 1374.31 2000 1475.19 2000 1475.19 2033.62ZM1475.19 1966.38 1374.31 1966.38 1374.31 1932.75 1475.19 1932.75 1475.19 1966.38ZM1475.19 1899.12 1374.31 1899.12 1374.31 1865.5 1475.19 1865.5 1475.19 1899.12ZM1525.62 1798.25 1525.62 1814.22C1499.57 1804.13 1457.53 1789.84 1416.34 1789.84 1370.95 1789.84 1343.21 1797.41 1314.63 1804.97 1283.53 1813.38 1250.74 1821.79 1189.38 1823.47L1189.38 1798.25C1189.38 1781.44 1184.33 1767.15 1178.45 1756.22L1536.55 1756.22C1530.67 1767.15 1525.62 1781.44 1525.62 1798.25Z" fill="#FFFFFF"/></g></svg>